<svg width="674" height="195" viewBox="0 0 674 195" fill="none" xmlns="http://www.w3.org/2000/svg">
<path d="M170.281 55.5372L180.296 0.455078H225.136L215.121 55.5372C212.617 69.1939 216.714 83.3059 240.158 83.3059H240.613C262.919 83.3059 268.154 69.1939 270.658 55.5372L280.673 0.455078H325.512L315.498 55.5372C311.173 79.2088 304.117 122 240.613 122H236.061C169.143 122 165.956 78.7536 170.281 55.5372Z" fill="#1BAC6D"/>
<path d="M58.2948 112.896L63.3022 83.9888H94.0299C109.735 83.9888 115.425 87.1754 112.694 102.425L110.873 112.668H156.623C156.623 112.213 156.851 111.758 156.851 111.302L159.355 97.418C164.134 71.2426 149.795 64.6419 139.325 62.1381C152.754 60.3172 170.508 52.5784 170.508 30.2724C170.508 16.8433 162.313 0 127.034 0H33.7127L13 112.668H58.2948V112.896ZM72.8619 32.7761H112.011C120.433 32.7761 122.026 36.6456 122.026 41.1978C122.026 45.75 119.978 50.9851 109.735 50.9851H69.4478L72.8619 32.7761Z" fill="#1BAC6D"/>
<path d="M357.149 112.895L368.074 52.805L410.183 112.895H459.347L479.832 0.226562H435.903L424.067 64.4132L379.455 0.226562H333.705L312.992 112.895H357.149Z" fill="#1BAC6D"/>
<path d="M562.68 112.895H607.747L621.631 35.9626H645.075C659.415 35.9626 668.064 28.4513 670.113 17.0707L673.072 0.455078H538.325L531.725 36.1901H576.792L562.68 112.895Z" fill="#1BAC6D"/>
<path d="M511.478 112.895L531.736 0.226562H486.896L466.184 112.895H511.478Z" fill="#1BAC6D"/>
<path d="M147.122 155.584H124.469V163.842H133.908C133.719 165.638 132.964 167.253 131.832 168.511C129.944 170.127 127.49 171.025 125.036 170.844C122.204 171.025 119.372 169.946 117.296 167.972C114.464 165.279 113.143 161.689 113.143 158.097C113.143 156.302 113.52 154.328 114.276 152.712C116.163 147.864 119.75 145.53 124.469 145.53C126.735 145.53 129 146.248 130.699 147.506C132.02 148.762 133.153 150.198 133.908 151.814L144.668 147.685C143.158 144.632 140.893 141.939 138.061 139.786C134.286 137.273 129.566 135.836 125.036 136.015C117.296 136.015 111.444 138.349 107.102 143.016C103.327 147.146 101.25 152.533 101.439 158.097C101.25 163.124 102.949 168.151 106.347 172.28C110.689 177.487 116.73 180 124.847 180C126.735 180 128.622 179.821 130.51 179.463C132.964 178.923 135.418 178.026 137.495 176.768C141.27 174.436 144.102 170.844 145.612 166.895C146.556 163.124 147.122 159.355 147.122 155.584ZM85.5816 136.373H72.5561L55 180H67.648L70.6684 172.28H87.0918L90.1122 180H102.76L85.5816 136.373ZM158.449 136.194C154.673 136.194 151.464 138.887 151.464 142.658V173.357C151.653 177.128 154.862 180 158.827 179.821C162.413 179.642 165.434 176.949 165.622 173.357V142.479C165.434 138.887 162.413 136.015 158.449 136.194ZM219.99 136.015H208.286L198.469 159.534L189.219 136.373H177.515L169.776 179.821H181.668L185.444 154.865L192.995 172.82L195.827 179.821H200.546L211.684 154.507L215.082 179.821H226.974L219.99 136.015ZM259.633 136.194H246.796L229.051 179.821H241.699L244.908 172.28H261.332L264.163 179.821H277L259.633 136.194Z" fill="#1BAC6D"/>
<path d="M16.464 158.412C19.362 158.412 21.588 159.546 23.142 161.814C24.696 164.082 25.242 166.77 24.738 169.92C24.192 172.986 22.932 175.506 20.916 177.564C18.942 179.58 16.464 180.588 13.566 180.588C10.794 180.588 8.778 179.58 7.56 177.606L7.14 180H0.167999L5.334 150.6H12.306L10.542 160.722C12.138 159.168 14.112 158.412 16.464 158.412ZM17.766 169.5C18.27 166.686 16.758 164.922 14.196 164.922C11.634 164.922 9.492 166.686 8.988 169.5C8.526 172.314 9.996 174.078 12.642 174.078C15.204 174.078 17.304 172.314 17.766 169.5Z" fill="#1BAC6D"/>
<path d="M35.5822 171.138L41.0422 159H49.0642L38.3962 179.37C34.7422 186.384 30.2482 188.904 24.0322 188.4L25.2082 181.848C28.2322 181.848 29.4082 181.218 30.7102 179.16L26.0062 159H33.3982L35.5822 171.138Z" fill="#1BAC6D"/>
</svg>
